<?xml version="1.0" encoding="utf-8"?>
<!-- Generator: Adobe Illustrator 22.1.0, SVG Export Plug-In . SVG Version: 6.00 Build 0)  -->
<svg version="1.1" id="Layer_1" xmlns="http://www.w3.org/2000/svg" xmlns:xlink="http://www.w3.org/1999/xlink" x="0px" y="0px"
	 viewBox="0 0 188.4 188.4" style="enable-background:new 0 0 188.4 188.4;" xml:space="preserve">
<style type="text/css">
	.st0{fill:#1890FF;}
	.st1{fill:#FFFFFF;}
</style>
<title>logo</title>
<path class="st0" d="M94.5,0C42.2,0,0,42,0,94c0,52.3,42,94.4,94.2,94.4c51.9,0,94.2-42.1,94.2-93.7C188.5,42.3,146.5,0,94.5,0z"/>
<polygon class="st1" points="91.7,40.7 88.8,40.7 86.7,40.7 85.9,40.7 83.8,40.7 81.7,40.7 80.9,40.7 76.7,40.7 34.3,147.7 
	38.5,147.7 39.4,147.7 42.8,147.7 43.5,147.7 44.4,147.7 47.7,147.7 49.3,147.7 52.5,139.7 52.5,139.7 84.2,59.5 119,147.7 
	123.2,147.7 124,147.7 126.1,147.7 128.2,147.7 129,147.7 131.1,147.7 134,147.7 "/>
<polygon class="st1" points="111.7,40.7 109.9,40.7 106.7,40.7 105.4,40.7 104.9,40.7 101.7,40.7 100.4,40.7 96.7,40.7 139.1,147.7 
	142.7,147.7 144,147.7 147.2,147.7 147.7,147.7 149,147.7 152.2,147.7 154.1,147.7 "/>
<polygon class="st1" points="80.8,125.6 80.8,125.6 82.6,121 "/>
<polygon class="st1" points="54.4,147.7 58.3,147.7 59.4,147.7 60.6,147.7 63.3,147.7 64.4,147.7 65.6,147.7 69.4,147.7 92,90.4 
	84.5,71.4 "/>
<polygon class="st1" points="87.8,107.9 86.3,111.7 86.3,111.7 84.4,116.3 102.3,116.3 98.9,107.9 "/>
<polygon class="st1" points="82.6,121 80.8,125.6 79,130.3 77.2,134.9 109.6,134.9 104.1,121 "/>
</svg>
