<?xml version="1.0" encoding="utf-8"?>
<!-- Generator: Adobe Illustrator 22.1.0, SVG Export Plug-In . SVG Version: 6.00 Build 0)  -->
<svg version="1.1" id="Layer_1" xmlns="http://www.w3.org/2000/svg" xmlns:xlink="http://www.w3.org/1999/xlink" x="0px" y="0px"
	 viewBox="0 0 188.4 188.4" style="enable-background:new 0 0 188.4 188.4;" xml:space="preserve">
<style type="text/css">
	.st0{fill:#203B4E;}
	.st1{fill:#326CFE;}
	.st2{fill:#FFFFFF;}
</style>
<title>logo</title>
<g>
	<circle class="st0" cx="94.5" cy="94.5" r="93.9"/>
	<path class="st1" d="M134.2,159c-8.5,13.9-19.5,19.9-35.4,11.6c-2.3-1.2-6.2-1.2-8.5,0c-15.9,8.2-26.9,2.3-35.4-11.6
		c-2.7-5.7-8.4-6.5-13.5-8c-10.3-3-15.5-9.6-14.4-20.3c1-9.3-1.7-17.1-7.7-24.2c-6.2-7.3-7-15.2-0.6-22.7c6.6-7.8,9.3-16.3,8.4-26.5
		c-0.9-9.6,3.9-16,13.3-18.4c9-2.3,15.5-7.2,20.2-15.3c5.1-8.8,13.1-11.3,22.5-7c7.7,3.5,15.2,3.5,22.9,0c10.1-4.6,18-1.1,23.3,8
		c4.2,7.3,10.1,11.8,18.3,13.8c10.4,2.5,15.6,9.4,14.5,20.1c-0.9,9.3,1.5,17.1,7.6,24.2c7.2,8.3,6.2,16.8-0.6,24.8
		c-5.5,6.4-7.9,13.5-7,21.9c1.3,11.8-4.2,19-15.6,22C141.7,152.7,136.7,153.9,134.2,159z M94.3,144.8c27.9,0.1,50.3-21.9,50.4-49.8
		c0.1-27.9-21.9-50.3-49.8-50.4c-27.9-0.1-50.3,21.9-50.4,49.8C44.4,122.4,66.4,144.7,94.3,144.8z"/>
	<path class="st0" d="M94.3,144.8c-27.9-0.1-49.9-22.4-49.8-50.4c0.1-27.9,22.4-49.9,50.4-49.8c27.9,0.1,49.9,22.4,49.8,50.4
		C144.5,122.9,122.2,144.9,94.3,144.8z M124.5,94.1c-0.3-15.9-14-29.3-29.9-29.3c-16.4,0-30.3,14.2-30,30.5
		c0.3,15.9,14,29.3,29.9,29.3C111,124.7,124.8,110.5,124.5,94.1z"/>
	<path class="st2" d="M124.5,94.1c0.4,16.4-13.5,30.5-30,30.5c-15.9,0-29.6-13.4-29.9-29.3c-0.4-16.4,13.6-30.6,30-30.5
		C110.4,64.8,124.1,78.2,124.5,94.1z"/>
</g>
</svg>
