<?xml version="1.0" encoding="utf-8"?>
<!-- Generator: Adobe Illustrator 22.1.0, SVG Export Plug-In . SVG Version: 6.00 Build 0)  -->
<svg version="1.1" id="Layer_1" xmlns="http://www.w3.org/2000/svg" xmlns:xlink="http://www.w3.org/1999/xlink" x="0px" y="0px"
	 viewBox="0 0 188.4 188.4" style="enable-background:new 0 0 188.4 188.4;" xml:space="preserve">
<style type="text/css">
	.st0{fill:#326CFE;}
	.st1{fill:#FFFFFF;}
	.st2{fill:#1F63EA;}
	.st3{fill:#E2E2E2;}
</style>
<title>logo</title>
<g>
	<circle class="st0" cx="94.2" cy="94.2" r="93.9"/>
	<path class="st1" d="M94.7,122.3c-4.1,0-8.1-0.9-11.6-2.5l-0.6,1l-17.8,30c8.9,4.8,19.2,7.5,30,7.5c22,0,41.5-11.1,53-28.1
		l-28.2-22.7C114.7,116.2,105.4,122.3,94.7,122.3z"/>
	<path class="st1" d="M83,68.7c3.5-1.6,7.5-2.5,11.6-2.5c10.7,0,20.1,6,24.8,14.9l28.2-22.7c-11.5-17-31-28.2-53-28.2
		c-10.9,0-21.2,2.7-30.2,7.6l17.9,29.9L83,68.7z"/>
	<path class="st2" d="M71.2,78.8l9.2,15.4l-9.2,15.5l-19.2,32.2l19.2-32.2c2.9,4.4,7,7.9,11.8,10.1l15.2-25.6L83,68.7
		C78.2,70.9,74.1,74.4,71.2,78.8z"/>
	<path class="st3" d="M83.1,119.8c-4.8-2.2-8.9-5.7-11.8-10.1l-19.2,32.2c3.8,3.4,8.1,6.4,12.6,8.8l17.8-30L83.1,119.8z"/>
	<path class="st3" d="M71.2,78.8c2.9-4.4,7-7.9,11.8-10.1l-0.6-1L64.5,37.8c-4.6,2.4-8.8,5.4-12.6,8.8L71.2,78.8z"/>
	<path class="st1" d="M80.5,94.2l-9.2-15.4L51.9,46.6v0c-13,11.7-21.2,28.7-21.2,47.6c0,19,8.3,36,21.4,47.7l19.2-32.2L80.5,94.2z"
		/>
</g>
</svg>
