<?xml version="1.0" encoding="utf-8"?>
<!-- Generator: Adobe Illustrator 22.1.0, SVG Export Plug-In . SVG Version: 6.00 Build 0)  -->
<svg version="1.1" id="Layer_1" xmlns="http://www.w3.org/2000/svg" xmlns:xlink="http://www.w3.org/1999/xlink" x="0px" y="0px"
	 viewBox="0 0 188.4 188.4" style="enable-background:new 0 0 188.4 188.4;" xml:space="preserve">
<style type="text/css">
	.st0{fill:#FEC94F;}
	.st1{fill:#FE5C61;}
	.st2{fill:#007EEF;}
	.st3{fill:#807D7D;}
	.st4{fill:#666666;}
	.st5{fill:#FEFEFD;}
	.st6{fill:none;}
	.st7{fill:#FFFFFF;}
</style>
<title>logo</title>
<g>
	<circle class="st0" cx="94.2" cy="94.2" r="94.2"/>
	<path class="st1" d="M95.8,175c0-6.1,0-12.2,0-18.3c0-1.5,0-3,0-4.4c0-4.2,0.1-8.4,0-12.6c0-1.4,0.4-1.8,1.7-1.8
		c4.5,0.1,9,0.1,13.5,0c1.2,0,1.6,0.4,1.5,1.6c0,4.3,0,8.5,0,12.8c0,1.5,0,3,0,4.4c0,5.9,0,11.7,0,17.6c-0.1,0.2-0.3,0.3-0.5,0.1
		c-1.8-2.6-3.6-5.3-5.5-7.9c-2.5-3.6-2.5-3.6-4.9,0c-1.9,2.8-4.1,5.4-5.5,8.5C96,175,95.9,175,95.8,175z"/>
	<path class="st2" d="M95.7,152.3c0,1.5,0,3,0,4.4c-10.7,0-21.4-0.1-32.1,0c-5,0-8.4-2.3-10.6-6.6c-3-5.9-2.9-12.3-2.1-18.7
		c0.4-3.3,1.8-6.4,2.1-9.8c1-0.3,2-0.4,3-0.8c19.1-7.2,38.3-14.3,57.4-21.5c3.9,4.5,7.8,9,11.6,13.6c1,1.2,1.4,1,2.1-0.2
		c1.3-2.2,2.8-4.2,4.2-6.4c0.5-0.8,1-1,1.9-0.9c2.3,0.4,4.7,0.6,7.1,0.9c1.5,0.2,3,0.3,4.5,0.4c-4.4-3.9-9-7.5-13.5-11.1
		c-0.8-0.7-1.9-1.1-2.4-2.2c11.2-4.2,22.4-8.4,33.6-12.6c2.8,12.2,5.5,24.3,8.3,36.5c0.3,1.2,0.4,2.4,0.8,3.5
		c0.6,1.7,0.1,2.4-1.6,2.1c-2.1-0.4-4.2-0.1-6.4-0.1c-32.4,0-64.9,0.1-97.3,0c-6.6,0-9.2,1.9-11,8.7c-1.3,4.9-1.1,10,0.8,14.8
		c1.7,4.3,4,5.9,8.6,5.9C75.2,152.3,85.4,152.3,95.7,152.3z"/>
	<path class="st3" d="M35.4,38.9c-4.8-1.6-9.6-3.2-14.4-4.7c-1.5-0.6-3-1.2-5-1.9c3-1.1,5.6-2,8.2-2.9c0.2,0,0.4-0.1,0.3-0.3
		c0,0,0,0,0,0c3.1-0.4,5.9-1.7,8.8-2.7c12.4-4.2,24.9-8.4,37.3-12.6c0.9-0.3,1.8-0.5,2.8-0.1c17.8,6.1,35.7,12.1,53.5,18.1
		c0.3,0.1,0.7,0.3,1,0.4c-0.4,0.8-1.1,0.8-1.7,1c-4.7,1.6-9.4,3.2-14.2,4.8c-0.7,0.3-1.6,0.4-2.1,1c-0.9,0-1.7,0.3-2.5,0.5
		c-11,3.7-22,7.5-32.9,11.2c-1.5,0.5-2.9,0.6-4.4,0c-10.2-3.5-20.4-6.9-30.6-10.3c-0.6-0.2-1.4-0.2-1.6-1c3.2-1,6.4-2,9.6-3
		c8.1-2.4,16.2-4.9,24.2-7.3c0.6-0.2,1.7-0.2,1.4-1c-0.3-0.9-1.2-0.3-1.9-0.2c-0.1,0-0.2,0.1-0.4,0.1c-11.3,3.4-22.6,6.8-33.8,10.2
		C36.6,38.2,35.9,38.3,35.4,38.9z"/>
	<path class="st2" d="M56.7,88.5c0.6-6,1.3-11.9,1.9-17.9c0.1-1.1,0.2-2.2,0.3-3.2c6.1,1.4,12.3,2.1,18.6,1.5
		C85.4,68.2,93,66.6,100,63c3.7-1.9,7.1-4.2,9.8-7.5c0.8-1,1.2-2.1,1.1-3.5c-0.3-3.6-0.4-7.2-0.5-10.7c13.8,0,27.6,0,41.4,0
		c1.6,0,2.2,0.5,2.5,2c0.6,3.2,1.4,6.4,2.2,9.6c-3.5,1.3-7,2.6-10.6,3.9c-9,3.3-18,6.5-27,9.8c-5.7,1.7-11.3,3.8-16.8,6
		c-7.4,2.6-14.7,5.2-22.1,7.9C72.2,83.1,64.5,85.8,56.7,88.5z"/>
	<path class="st4" d="M110.4,41.3c0.2,3.6,0.2,7.2,0.5,10.7c0.1,1.4-0.3,2.5-1.1,3.5c-2.7,3.3-6.1,5.6-9.8,7.5
		c-7,3.6-14.6,5.2-22.4,5.9c-6.3,0.6-12.5-0.1-18.6-1.5c-4-1.2-8-2.4-11.7-4.5c-3.3-1.8-6.4-3.8-8.7-6.8c-0.8-1.1-1.3-2.2-1.3-3.7
		c0-4.3-0.1-8.6-0.1-12.9c0.3-0.1,0.5-0.2,0.8-0.3c0.2,0.8,1,0.8,1.6,1c10.2,3.4,20.4,6.9,30.6,10.3c1.5,0.5,2.9,0.5,4.4,0
		c11-3.8,22-7.5,32.9-11.2c0.8-0.3,1.6-0.6,2.5-0.5C110.2,39.6,110.3,40.5,110.4,41.3z"/>
	<path class="st5" d="M118.8,66.5c9-3.3,18-6.5,27-9.8c3.5-1.3,7.1-2.6,10.6-3.9c3.8-0.8,6.9,0.7,9.1,3.7c4.1,5.5,5.3,11.7,3.9,18.3
		c-0.6,2.7-2.1,4.6-4.9,5.3c-0.6,0.2-1.2,0.5-1.9,0.7c-11.2,4.2-22.4,8.4-33.6,12.6c0.5-1.6,1.1-3.1,1.1-4.8
		c0-6.6-1.9-12.7-5.7-18.1C123,68.7,121.2,67.2,118.8,66.5z"/>
	<path class="st0" d="M24.6,29c0,0.2-0.1,0.3-0.3,0.3C24.3,29.2,24.5,29.1,24.6,29z"/>
	<path class="st5" d="M56.7,88.5c7.7-2.7,15.4-5.5,23.1-8.2c7.4-2.6,14.7-5.2,22.1-7.9c3.9,1.5,6.5,4.4,8.5,8.1
		c3.1,5.9,4.4,12.2,3,18.8c-19.1,7.2-38.3,14.4-57.4,21.5c-1,0.4-2,0.5-3,0.8c-4.4-0.6-6.4-3.9-8.2-7.4c-1.9-3.7-2.8-7.7-2.8-11.9
		c-0.1-2.3,0.9-3.8,3.1-4.6c1.2-0.5,2.3-0.9,3.9-1.6c-1.6-1.1-2.9-2-4.5-3.1C48.7,91.5,52.7,90,56.7,88.5z"/>
	<path class="st5" d="M38.1,39.3c-0.3,0.1-0.5,0.2-0.8,0.3c-0.9,0.2-0.6,1-0.6,1.5c0,8.6,0,17.2,0,25.8c0,0.6-0.1,1.1,0.5,1.7
		c2.3,2.2,2.1,3.5-0.5,5c-0.4,0-0.7,0-1.1,0c-2.4-1.5-2.6-2.9-0.6-4.9c0.6-0.6,0.5-1.2,0.5-1.8c0-9.3,0-18.6,0-27.9
		c0.5-0.5,1.2-0.6,1.8-0.8c11.3-3.4,22.6-6.8,33.8-10.2c0.1,0,0.2-0.1,0.4-0.1c0.7-0.1,1.6-0.8,1.9,0.2c0.2,0.8-0.9,0.8-1.4,1
		c-8.1,2.4-16.2,4.9-24.2,7.3C44.4,37.3,41.2,38.3,38.1,39.3z"/>
	<path class="st1" d="M35.5,73.4c0.4,0,0.7,0,1.1,0c0.7,4.2,1.4,8.5,2.2,12.7c0.2,1.4-0.2,2-1.7,2c-3.7,0.1-3.8,0.1-3.3-3.4
		C34.2,81,34.9,77.2,35.5,73.4z"/>
	<path class="st0" d="M113.4,99.4c1.4-6.6,0.1-12.9-3-18.8c-1.9-3.7-4.5-6.5-8.5-8.1c5.6-2.1,11.1-4.2,16.8-6
		c2.4,0.7,4.2,2.2,5.6,4.1c3.8,5.4,5.6,11.5,5.7,18.1c0,1.7-0.6,3.2-1.1,4.8c0.5,1,1.5,1.5,2.4,2.2c4.5,3.6,9,7.2,13.5,11.1
		c-1.5-0.1-3-0.3-4.5-0.4c-2.4-0.3-4.7-0.5-7.1-0.9c-0.9-0.1-1.4,0.1-1.9,0.9c-1.4,2.1-2.9,4.2-4.2,6.4c-0.7,1.2-1.1,1.4-2.1,0.2
		C121.2,108.4,117.3,103.9,113.4,99.4z"/>
	<path class="st6" d="M167.5,144.9c-0.3-1.8-0.6-4.1-0.9-6.9c0,0.2,0,0.5,0,0.7C166.7,140.8,166.9,142.8,167.5,144.9z"/>
	<path class="st5" d="M170.8,152c0.2,0,0.3-0.1,0.5,0C171.2,151.9,171,151.9,170.8,152z"/>
	<path class="st7" d="M167.5,144.9c-0.5-2.1-0.7-4.1-0.9-6.2c0-0.2,0-0.5,0-0.7c-0.1-5.3,1.4-10.2,3.5-14.9c0,0,0,0,0,0
		c-2.1-0.4-4.2-0.1-6.4-0.1c-32.4,0-64.9,0.1-97.3,0c-6.6,0-9.2,1.9-11,8.7c-1.3,4.9-1.1,10,0.8,14.8c1.7,4.3,4,5.9,8.6,5.9
		c10.3,0,20.6,0,30.9,0c0-4.2,0.1-8.4,0-12.6c0-1.4,0.4-1.8,1.7-1.8c4.5,0.1,9,0.1,13.5,0c1.2,0,1.6,0.4,1.5,1.6c0,4.3,0,8.5,0,12.8
		c18.1,0,36.2,0,54.3,0c1.2,0,2.4,0.1,3.6-0.3c0.1,0,1-0.1,1.1-0.1C170.6,151.3,168.4,147.9,167.5,144.9z"/>
	<path class="st2" d="M156.7,156.8c-12,0-23.9,0-35.9-0.1c-2.7,0-5.5,0-8.2,0c0-1.5,0-3,0-4.4c18.1,0,36.2,0,54.3,0
		c1.2,0,2.4,0.1,3.6-0.3c1.2-0.4,1.9,0,1.8,1.5c-0.1,3.2-0.1,3.2-3.2,3.2C165,156.8,160.8,156.8,156.7,156.8z"/>
</g>
</svg>
