<?xml version="1.0" encoding="utf-8"?>
<!-- Generator: Adobe Illustrator 22.1.0, SVG Export Plug-In . SVG Version: 6.00 Build 0)  -->
<svg version="1.1" id="Layer_1" xmlns="http://www.w3.org/2000/svg" xmlns:xlink="http://www.w3.org/1999/xlink" x="0px" y="0px"
	 viewBox="0 0 188.4 188.4" style="enable-background:new 0 0 188.4 188.4;" xml:space="preserve">
<style type="text/css">
	.st0{fill:#FC7900;}
	.st1{fill:#FFFFFF;}
	.st2{fill:#C8CACC;}
	.st3{fill:#1D1D1B;}
</style>
<title>logo</title>
<circle class="st0" cx="94.2" cy="94.2" r="94.2"/>
<g>
	<path class="st1" d="M84.7,148c-5.9-1.8-11.6-3.5-17.4-5.2c-5.4-1.6-10.8-3.2-16.2-4.8c-3.2-0.9-6.4-1.8-9.5-2.7
		c-0.5-0.2-1-0.4-1.6-0.6c-0.5-0.1-0.6-0.3-0.6-0.8c0-1,0-1.9,0-2.9c0-24.5,0-49.1,0-73.6c0-0.4,0-0.8,0-1.4
		c3.8,1.1,7.5,2.2,11.2,3.3c11,3.3,22.1,6.6,33.1,9.9c0.6,0.2,1,0.4,1,1.2c0,25.6,0,51.2,0,76.8C84.7,147.5,84.7,147.7,84.7,148z"/>
	<path class="st1" d="M103.7,148c0-0.4,0-0.8,0-1.1c0-25.4,0-50.7,0-76.1c0-1,0.3-1.3,1.2-1.6c13-3.9,26.1-7.8,39.1-11.7
		c1.6-0.5,3.2-1,4.9-1.4c0.2,0.4,0.1,0.7,0.1,1c0,25.5,0,50.9,0,76.4c0,0.7-0.1,1-0.9,1.3c-14.5,4.3-29,8.7-43.5,13
		C104.3,147.8,104,147.9,103.7,148z"/>
	<path class="st1" d="M86.7,108.8c0-12.7,0-25.4,0-38.1c0-1,0.2-1.2,1.2-1.2c4.3,0.1,8.7,0,13,0c0.7,0,0.9,0.2,0.9,0.9
		c0,25.6,0,51.1,0,76.7c0,0.8-0.2,1-1,0.9c-4.3,0-8.7,0-13,0c-0.9,0-1.1-0.2-1.1-1.1C86.7,134.2,86.7,121.5,86.7,108.8
		C86.7,108.8,86.7,108.8,86.7,108.8z"/>
	<path class="st1" d="M85.9,68.1c-1.4-0.5-2.8-0.9-4.1-1.5c-6.6-2.9-13.4-5.4-20.1-8.2c-3.7-1.5-7.5-3-11.3-4.5
		c-1.1-0.4-1.9-1.1-2.1-2.3c-0.2-1.1-0.7-2.1-1.1-3.4c13.1,6.6,26,13.1,38.9,19.6C85.9,67.9,85.9,68,85.9,68.1z"/>
	<path class="st1" d="M101.7,68.2c13.2-6.7,26.3-13.3,39.7-20c-0.7,1.8-1.3,3.4-1.9,4.9c-0.2,0.4-0.6,0.4-0.9,0.6
		c-11.4,4.5-22.8,9.1-34.2,13.6C103.6,67.7,102.8,68.3,101.7,68.2z"/>
	<path class="st1" d="M88.9,67.6c-1,0.1-1.3-0.6-1.8-0.9c-3.8-2.3-7.6-4.7-11.3-7.1c-4.2-2.7-8.4-5.4-12.6-8.2
		c-1.2-0.8-2.4-1.6-3.6-2.3c-0.8-0.5-1.7-1-1.7-2.2c0-1.4-0.5-2.6-0.6-4.2C67.8,51,78.3,59.2,88.9,67.6z"/>
	<path class="st1" d="M100.1,67.1c3.8-3,7.6-6,11.4-9c3.3-2.6,6.7-5.2,10-7.9c1.5-1.2,3.2-2.3,4.6-3.7c1.4-1.5,3.4-2.2,5-3.6
		c-0.3,1.7-0.6,3.4-1,5.1c-0.1,0.4-0.5,0.6-0.9,0.8c-6.3,4-12.5,8-18.8,12c-3.4,2.2-6.8,4.4-10.2,6.5
		C100.2,67.2,100.2,67.1,100.1,67.1z"/>
	<path class="st1" d="M97.5,66.4c0.7-1.4,1.8-2.3,2.8-3.4c5.8-6.5,11.3-13.1,16.9-19.7c0.6-0.7,1.3-1.4,1.8-2.2
		c0.2-0.3,0.5-0.9,0.9-0.6c0.2,0.2,0.6,0.8,0.4,1.2c-0.3,0.8-0.2,1.6,0,2.4c0.1,0.3,0.1,0.6-0.2,0.9c-7.4,7.1-14.7,14.2-22.1,21.3
		c-0.1,0.1-0.2,0.1-0.3,0.2C97.6,66.5,97.6,66.5,97.5,66.4z"/>
	<path class="st1" d="M68.7,40.3c7.3,8.5,14.5,17,21.9,25.7c-0.7,0-0.9-0.4-1.1-0.6c-7-6.8-14-13.5-21-20.3
		c-0.4-0.4-0.4-0.8-0.3-1.2c0.2-1.1,0.3-2.2,0.1-3.4C68.4,40.5,68.5,40.4,68.7,40.3z"/>
</g>
<path class="st2" d="M1440.5-74.7c-0.2,0.2-0.4,0.3-0.6,0.5c-0.1-0.1-0.3-0.3-0.2-0.4c0.2-0.2,0.4-0.3,0.6-0.5
	C1440.3-74.9,1440.4-74.8,1440.5-74.7z"/>
<path class="st3" d="M1187.2,51.6c-0.6,0.4-1.2,0.9-1.8,1.3c-0.2-0.2-0.4-0.4-0.5-0.6c0.5-0.5,1.1-1,1.6-1.5
	C1186.8,51.1,1187,51.4,1187.2,51.6z"/>
<path class="st3" d="M1185.5,52.9c-0.7,0.3-1.5,0.7-2.2,0c0.6-0.2,1.1-0.4,1.7-0.6C1185.1,52.5,1185.3,52.7,1185.5,52.9z"/>
<path class="st3" d="M1173.1,50.5c-0.1,0.7-0.6,1-1.3,0.9c-0.1,0-0.3-0.2-0.4-0.2c0.4-0.4,0.8-0.8,1.2-1.2
	C1172.7,50.2,1172.9,50.3,1173.1,50.5z"/>
<path class="st3" d="M1145.4,50c0.1,0.4,0.3,1.1,0.2,1.1c-0.6,0.3-0.6-0.3-0.7-0.6C1145.1,50.3,1145.3,50.2,1145.4,50z"/>
<path class="st3" d="M1174.1,49.5c-0.4,0.3-0.7,0.6-1.1,0.9c-0.2-0.2-0.4-0.3-0.5-0.5c0.3-0.4,0.6-0.8,0.9-1.2
	C1173.7,49,1173.9,49.3,1174.1,49.5z"/>
<path class="st3" d="M1144.9,50.5c-0.4-0.3-0.7-0.6-1.1-0.9c0.2-0.3,0.5-0.5,0.7-0.8c0.3,0.4,0.6,0.8,0.9,1.2
	C1145.3,50.2,1145.1,50.3,1144.9,50.5z"/>
<path class="st3" d="M1142.8,48.6c-0.5-0.3-1.3-0.8-0.9-1.3c0.8-1,1.2,0.2,1.8,0.6C1143.4,48.1,1143.1,48.3,1142.8,48.6z"/>
<path class="st3" d="M1173.5,48.8c0.3-0.3,0.6-0.6,0.8-0.9c0.3,0.2,0.6,0.5,0.9,0.7c-0.3,0.3-0.7,0.7-1,1
	C1173.9,49.3,1173.7,49,1173.5,48.8z"/>
<path class="st3" d="M1143.8,49.6c-0.3-0.3-0.7-0.7-1-1c0.3-0.2,0.6-0.5,0.9-0.7c0.3,0.3,0.6,0.6,0.8,0.9
	C1144.3,49,1144.1,49.3,1143.8,49.6z"/>
</svg>
