<?xml version="1.0" encoding="utf-8"?>
<!-- Generator: Adobe Illustrator 22.1.0, SVG Export Plug-In . SVG Version: 6.00 Build 0)  -->
<svg version="1.1" id="Layer_1" xmlns="http://www.w3.org/2000/svg" xmlns:xlink="http://www.w3.org/1999/xlink" x="0px" y="0px"
	 viewBox="0 0 188.4 188.4" style="enable-background:new 0 0 188.4 188.4;" xml:space="preserve">
<style type="text/css">
	.st0{fill:#0079D5;}
	.st1{fill:#0071BD;}
	.st2{fill:#FFFFFF;}
</style>
<title>logo</title>
<path class="st0" d="M-20-147.3c-1.1,0.4-1.4,0.1-1-1C-20.1-148.5-19.8-148.2-20-147.3z"/>
<circle class="st1" cx="94.2" cy="94.2" r="94.2"/>
<g>
	<path class="st2" d="M70.7,90.5c-1.8,6.4-4.3,16.2-7.5,29.2c-0.8,4.5-1.5,9-2.2,13.4c-1.6,5.6-4.6,8.5-9,8.5
		c-2.7,0-4.9-0.9-6.5-2.8c-1.4-1.6-2-3.5-2-5.7c0-6.4,1.4-14.3,4.1-23.6c4.1-13.9,6.3-21.6,6.6-23.1c1.2-6.1,2.3-12.3,3.5-18.4
		c1.8-8.4,3.7-14.1,5.8-16.9c2.1-2.8,4.7-4.2,7.9-4.2c3.6,0,6.3,1.8,8,5.5c1.6,3.5,3.3,10.5,5.1,21.2c1.8,10.4,4.4,21.6,7.8,33.5
		c4.5-11.8,8.8-24.8,12.7-38.9l3.3-13.7c2.1-5.7,5.5-8.5,10-8.5c4.3,0,7.6,3.3,9.7,9.9c0.9,2.7,1.8,7.6,2.8,14.9
		c2.3,17,5.2,31.5,8.7,43.6c3.5,12.3,5.3,19,5.3,20.1c0,2.3-0.9,4.3-2.8,5.9c-1.8,1.4-3.7,2.1-5.9,2.1c-4.3,0-7.6-3.1-9.7-9.3
		l-3.3-14.4c-1.9-7.2-4-17.4-6.2-30.9c-1.8,5.3-4.8,13.7-8.9,25.1l-3.6,11c-1.5,4.3-3,7.9-4.6,10.7c-2.1,3.7-5.1,5.6-8.8,5.6
		c-3.7,0-6.6-2.2-8.6-6.6l-3.3-11.1C75.9,112.5,73.1,101.8,70.7,90.5z"/>
</g>
</svg>
