<?xml version="1.0" encoding="utf-8"?>
<!-- Generator: Adobe Illustrator 22.1.0, SVG Export Plug-In . SVG Version: 6.00 Build 0)  -->
<svg version="1.1" id="Layer_1" xmlns="http://www.w3.org/2000/svg" xmlns:xlink="http://www.w3.org/1999/xlink" x="0px" y="0px"
	 viewBox="0 0 188.4 188.4" style="enable-background:new 0 0 188.4 188.4;" xml:space="preserve">
<style type="text/css">
	.st0{fill:#FF0052;}
	.st1{fill:#FFFFFF;}
	.st2{fill:#E2E2E2;}
</style>
<title>logo</title>
<circle class="st0" cx="94.2" cy="94.2" r="94.2"/>
<g>
	<path class="st1" d="M75,112L45,69.7c-2.3-3.2-3.3-6.9-3.1-10.5c0,0.2,0,0.4,0,0.6v69c0,9.5,7.7,17.2,17.2,17.2s17.2-7.7,17.2-17.2
		v-9.9v-5.1L75,112z"/>
	<path class="st1" d="M146.6,59.2c0-0.3,0-0.6,0-0.9c0-0.3-0.1-0.6-0.1-0.9c0-0.2-0.1-0.5-0.1-0.7c-0.1-0.3-0.1-0.7-0.2-1
		c0-0.2-0.1-0.4-0.1-0.6c-0.1-0.3-0.2-0.7-0.3-1c-0.1-0.2-0.1-0.4-0.2-0.6c-0.1-0.3-0.3-0.6-0.4-1c-0.1-0.2-0.2-0.4-0.3-0.6
		c-0.1-0.3-0.3-0.6-0.5-0.8c-0.1-0.2-0.2-0.4-0.4-0.6c-0.2-0.3-0.3-0.5-0.5-0.7s-0.3-0.4-0.5-0.6c-0.2-0.2-0.4-0.5-0.6-0.7
		c-0.2-0.2-0.3-0.4-0.5-0.6c-0.2-0.2-0.5-0.5-0.7-0.7c-0.2-0.1-0.3-0.3-0.5-0.4c-0.3-0.3-0.6-0.5-0.9-0.7c-0.1-0.1-0.3-0.2-0.4-0.3
		c-0.4-0.3-0.7-0.5-1.1-0.7c-0.1-0.1-0.2-0.1-0.3-0.2c-0.4-0.2-0.8-0.4-1.2-0.6c-0.1-0.1-0.2-0.1-0.4-0.2c-0.4-0.2-0.7-0.3-1.1-0.4
		c-0.2-0.1-0.3-0.1-0.5-0.2c-0.3-0.1-0.7-0.2-1-0.3c-0.2-0.1-0.4-0.1-0.7-0.2c-0.3-0.1-0.6-0.1-0.8-0.1c-0.3,0-0.6-0.1-0.9-0.1
		c-0.2,0-0.5,0-0.7-0.1c-0.3,0-0.6,0-1,0c-0.3,0-0.5,0-0.8,0s-0.6,0-0.9,0c-0.3,0-0.6,0.1-0.9,0.1s-0.5,0.1-0.8,0.1
		c-0.3,0.1-0.6,0.1-0.9,0.2c-0.2,0.1-0.5,0.1-0.7,0.2c-0.3,0.1-0.6,0.2-0.9,0.3c-0.2,0.1-0.5,0.2-0.7,0.3c-0.3,0.1-0.5,0.2-0.7,0.3
		c-0.3,0.1-0.5,0.3-0.8,0.4c-0.2,0.1-0.4,0.2-0.6,0.3c-0.3,0.2-0.6,0.3-0.9,0.5c-0.2,0.1-0.3,0.2-0.5,0.3c-0.3,0.2-0.6,0.4-0.9,0.7
		c-0.1,0.1-0.3,0.2-0.4,0.3c-0.3,0.3-0.6,0.5-0.9,0.8c-0.1,0.1-0.2,0.3-0.4,0.4c-0.3,0.3-0.5,0.5-0.8,0.8c-0.1,0.2-0.3,0.3-0.4,0.5
		c-0.2,0.2-0.3,0.4-0.5,0.6L94.2,79.7l0.9,1.2l15.3,21.5c0.8,1.1,1.4,2.3,1.9,3.5c0.8,2,1.2,4,1.2,6.1c0,0.2,0,0.4,0,0.6
		c0,2.1-0.5,4.2-1.2,6.2v9.9c0,9.5,7.7,17.2,17.2,17.2s17.2-7.7,17.2-17.2v-69C146.6,59.6,146.6,59.4,146.6,59.2z"/>
	<g>
		<path class="st2" d="M76.3,128.8v-9.9v-5.1L75,112L45,69.7c-2-2.7-3-5.8-3.1-8.9v42l28,39.3C73.9,139,76.3,134.2,76.3,128.8z"/>
		<path class="st2" d="M95.1,80.9l15.3,21.5c0.8,1.1,1.4,2.3,1.9,3.5c0.8,2,1.2,4,1.2,6.1c0,0.2,0,0.4,0,0.6c0,2.1-0.5,4.2-1.2,6.2
			v9.9c0,9.5,7.7,17.2,17.2,17.2s17.2-7.7,17.2-17.2v-12.6l-39.2-55.2L94.2,79.7L95.1,80.9z"/>
	</g>
	<path class="st1" d="M106.5,126.6L106.5,126.6c-7.7,5.5-18.5,3.7-24-4.1L44.8,69.6c-5.5-7.7-3.7-18.5,4.1-24l0,0
		c7.7-5.5,18.5-3.7,24,4.1l37.6,52.9C116,110.3,114.2,121.1,106.5,126.6z"/>
</g>
</svg>
