<?xml version="1.0" encoding="utf-8"?>
<!-- Generator: Adobe Illustrator 22.1.0, SVG Export Plug-In . SVG Version: 6.00 Build 0)  -->
<svg version="1.1" id="Layer_1" xmlns="http://www.w3.org/2000/svg" xmlns:xlink="http://www.w3.org/1999/xlink" x="0px" y="0px"
	 viewBox="0 0 188.4 188.4" style="enable-background:new 0 0 188.4 188.4;" xml:space="preserve">
<style type="text/css">
	.st0{fill:#722ED1;}
	.st1{fill:#BFBFBF;}
	.st2{fill:#FFFFFF;}
</style>
<title>logo</title>
<g>
	<path class="st0" d="M94.5,0C42.2,0,0,42,0,94c0,52.3,42,94.4,94.2,94.4c51.9,0,94.2-42.1,94.2-93.7C188.5,42.3,146.5,0,94.5,0z"/>
	<path class="st1" d="M53.8,64.8c-0.7,0-1.2,0.5-1.2,1.2v81.4c0,0.7,0.5,1.2,1.2,1.2h106.3c0.7,0,1.2-0.5,1.2-1.2L53.8,64.8z"/>
	<path class="st2" d="M127.8,57.3c-7.3-16.9-23-17.5-23-17.5H53.8c-0.7,0-1.2,0.5-1.2,1.2v106.3c0,0,0,0,0,0c0,0.1,0,0.1,0,0.2
		c0,0,0,0,0,0c0.1,0.5,0.5,0.9,1,0.9l0,0c0.1,0,0.1,0,0.2,0l2.3-2.3l65.3-59.9C121.4,86.3,135.1,74.2,127.8,57.3z"/>
</g>
</svg>
