<?xml version="1.0" encoding="UTF-8"?>
<!DOCTYPE svg PUBLIC "-//W3C//DTD SVG 1.1//EN" "http://www.w3.org/Graphics/SVG/1.1/DTD/svg11.dtd">
<!-- Creator: CorelDRAW X8 -->
<svg xmlns="http://www.w3.org/2000/svg" xml:space="preserve" width="210mm" height="210mm" version="1.1" style="shape-rendering:geometricPrecision; text-rendering:geometricPrecision; image-rendering:optimizeQuality; fill-rule:evenodd; clip-rule:evenodd"
viewBox="0 0 21000 21000"
 xmlns:xlink="http://www.w3.org/1999/xlink"
 data-name="Capa 1">
 <defs>
  <style type="text/css">
   <![CDATA[
    .fil1 {fill:#FEFEFE}
    .fil0 {fill:#803AB8}
    .fil2 {fill:#FAB233}
   ]]>
  </style>
 </defs>
 <g id="Capa_x0020_1">
  <metadata id="CorelCorpID_0Corel-Layer"/>
  <g id="_1839230472384">
   <circle class="fil0" cx="10500" cy="10500" r="10459"/>
   <path class="fil1" d="M13540 8654c0,1004 0,2009 -2,3013 0,4 0,8 0,11 0,1263 -959,2319 -2216,2439 -84,9 -170,13 -255,13 0,0 -2,0 -2,0 -836,0 -1672,0 -2508,-2 -87,0 -106,24 -106,109 3,939 0,1878 4,2817 0,91 -21,114 -113,114 -780,-5 -1561,-5 -2342,0 -75,0 -106,-11 -105,-99 2,-2927 3,-5854 3,-8781 0,-1140 841,-2151 1961,-2371 196,-38 393,-65 594,-44 0,660 0,1319 0,1978 0,268 3,536 4,804 -1,869 -3,1739 -6,2609 0,68 34,67 82,67 787,0 1575,0 2362,0 62,0 90,-11 89,-83 -3,-863 -4,-1726 -3,-2589 4,-3 8,-7 9,-12l2545 2 5 5z"/>
   <path class="fil2" d="M10992 8646c-1,5 -4,10 -9,13 -45,0 -89,-3 -134,-3l-2391 -3c-1,-267 -4,-535 -4,-803 0,-659 0,-1318 0,-1978 41,-3 82,-9 123,-9 763,0 1527,-2 2290,2 97,0 119,-29 119,-121 -4,-602 0,-1204 -4,-1805 0,-79 17,-106 102,-105 554,4 1107,4 1661,0 79,0 105,18 105,102 -4,612 -4,1224 0,1836 0,82 -22,104 -104,103 -550,-3 -1100,0 -1651,-3 -82,0 -103,21 -103,103 2,890 0,1781 0,2671z"/>
   <path class="fil2" d="M13540 8654l-4 -6c0,-543 0,-1086 -3,-1629 0,-73 28,-84 90,-84 464,2 928,2 1391,0 74,0 92,23 91,94 -2,512 -2,1023 0,1535 0,71 -18,94 -91,94 -491,-5 -983,-3 -1474,-4z"/>
  </g>
 </g>
</svg>
